<svg width="29" height="29" viewBox="0 0 29 29" fill="none" xmlns="http://www.w3.org/2000/svg">
<path d="M8.70002 8.3375C9.10043 8.63781 9.18157 9.20585 8.88126 9.60625C8.37658 10.2792 8.32649 10.8625 8.55171 11.463C8.80625 12.1418 9.44824 12.923 10.5349 13.7923C10.9257 14.105 10.9891 14.6753 10.6764 15.0661C10.3637 15.457 9.79342 15.5203 9.4026 15.2077C8.22373 14.2645 7.27978 13.2332 6.85462 12.0995C6.40013 10.8875 6.57656 9.65834 7.43127 8.51875C7.73158 8.11834 8.29962 8.0372 8.70002 8.3375Z" fill="#354259"/>
<path d="M12.3196 15.6464C11.9518 15.307 11.3784 15.3301 11.039 15.698C10.6997 16.0659 10.7228 16.6392 11.0906 16.9786L12.073 17.8848C12.4409 18.2242 13.0142 18.2011 13.3536 17.8332C13.693 17.4654 13.6699 16.892 13.302 16.5527L12.3196 15.6464Z" fill="#354259"/>
<path fill-rule="evenodd" clip-rule="evenodd" d="M4.60499 5.64918C7.14872 2.95027 11.2964 2.95027 13.8401 5.64918L14.5 6.3493L15.1599 5.64918C17.7036 2.95027 21.8513 2.95027 24.395 5.64918C26.91 8.3176 26.91 12.623 24.395 15.2914L15.1595 25.0903C14.9883 25.272 14.7497 25.375 14.5 25.375C14.2503 25.375 14.0117 25.272 13.8405 25.0903L4.60499 15.2914C2.09 12.623 2.09 8.3176 4.60499 5.64918ZM12.5211 6.89233C10.6929 4.95256 7.75223 4.95256 5.92398 6.89233C4.06701 8.86259 4.06701 12.078 5.92398 14.0483L14.5 23.1474L23.076 14.0483C24.933 12.078 24.933 8.86259 23.076 6.89233C21.2478 4.95256 18.3071 4.95256 16.4789 6.89233L15.1595 8.29218C14.9883 8.47386 14.7497 8.57685 14.5 8.57685C14.2503 8.57685 14.0117 8.47386 13.8405 8.29218L12.5211 6.89233Z" fill="#354259"/>
</svg>
